<?xml version="1.0"?>
<!-- Generated by SVGo and Plotinum VG -->
<svg width="288pt" height="288pt" viewBox="0 0 288 288"
	xmlns="http://www.w3.org/2000/svg"
	xmlns:xlink="http://www.w3.org/1999/xlink">
<g transform="scale(1, -1) translate(0, -288)">
<path d="M0,0L288,0L288,288L0,288Z" style="fill:#FFFFFF" />
<text x="144" y="-276.81" transform="scale(1, -1)"
	style="font-family:Liberation Serif;font-variant:normal;font-weight:normal;font-style:normal;font-size:12px"></text>
<text x="41.689" y="-264.81" transform="scale(1, -1)"
	style="font-family:Liberation Serif;font-variant:normal;font-weight:normal;font-style:normal;font-size:12px">epsilon = 0.001, n = 25 (n simplified = 13)</text>
<text x="164.48" y="-3.9023" transform="scale(1, -1)"
	style="font-family:Liberation Serif;font-variant:normal;font-weight:normal;font-style:normal;font-size:12px">X</text>
<text x="68.335" y="-16.541" transform="scale(1, -1)"
	style="font-family:Liberation Serif;font-variant:normal;font-weight:normal;font-style:normal;font-size:10px">0.02</text>
<text x="162.95" y="-16.541" transform="scale(1, -1)"
	style="font-family:Liberation Serif;font-variant:normal;font-weight:normal;font-style:normal;font-size:10px">0.06</text>
<text x="260.07" y="-16.541" transform="scale(1, -1)"
	style="font-family:Liberation Serif;font-variant:normal;font-weight:normal;font-style:normal;font-size:10px">0.1</text>
<path d="M77.085,24.363L77.085,32.363" style="fill:none;stroke:#000000;stroke-width:0.5" />
<path d="M171.7,24.363L171.7,32.363" style="fill:none;stroke:#000000;stroke-width:0.5" />
<path d="M266.32,24.363L266.32,32.363" style="fill:none;stroke:#000000;stroke-width:0.5" />
<path d="M53.431,28.363L53.431,32.363" style="fill:none;stroke:#000000;stroke-width:0.5" />
<path d="M100.74,28.363L100.74,32.363" style="fill:none;stroke:#000000;stroke-width:0.5" />
<path d="M124.39,28.363L124.39,32.363" style="fill:none;stroke:#000000;stroke-width:0.5" />
<path d="M148.05,28.363L148.05,32.363" style="fill:none;stroke:#000000;stroke-width:0.5" />
<path d="M195.36,28.363L195.36,32.363" style="fill:none;stroke:#000000;stroke-width:0.5" />
<path d="M219.01,28.363L219.01,32.363" style="fill:none;stroke:#000000;stroke-width:0.5" />
<path d="M242.66,28.363L242.66,32.363" style="fill:none;stroke:#000000;stroke-width:0.5" />
<path d="M52.135,32.363L285.5,32.363" style="fill:none;stroke:#000000;stroke-width:0.5" />
<g transform="rotate(90)">
<text x="139.03" y="9.3867" transform="scale(1, -1)"
	style="font-family:Liberation Serif;font-variant:normal;font-weight:normal;font-style:normal;font-size:12px">Y</text>
</g>
<text x="15.885" y="-50.943" transform="scale(1, -1)"
	style="font-family:Liberation Serif;font-variant:normal;font-weight:normal;font-style:normal;font-size:10px">0.04</text>
<text x="15.885" y="-104.43" transform="scale(1, -1)"
	style="font-family:Liberation Serif;font-variant:normal;font-weight:normal;font-style:normal;font-size:10px">0.08</text>
<text x="15.885" y="-157.93" transform="scale(1, -1)"
	style="font-family:Liberation Serif;font-variant:normal;font-weight:normal;font-style:normal;font-size:10px">0.12</text>
<text x="15.885" y="-211.42" transform="scale(1, -1)"
	style="font-family:Liberation Serif;font-variant:normal;font-weight:normal;font-style:normal;font-size:10px">0.16</text>
<path d="M35.885,53.228L43.885,53.228" style="fill:none;stroke:#000000;stroke-width:0.5" />
<path d="M35.885,106.72L43.885,106.72" style="fill:none;stroke:#000000;stroke-width:0.5" />
<path d="M35.885,160.21L43.885,160.21" style="fill:none;stroke:#000000;stroke-width:0.5" />
<path d="M35.885,213.7L43.885,213.7" style="fill:none;stroke:#000000;stroke-width:0.5" />
<path d="M39.885,66.601L43.885,66.601" style="fill:none;stroke:#000000;stroke-width:0.5" />
<path d="M39.885,79.974L43.885,79.974" style="fill:none;stroke:#000000;stroke-width:0.5" />
<path d="M39.885,93.347L43.885,93.347" style="fill:none;stroke:#000000;stroke-width:0.5" />
<path d="M39.885,120.09L43.885,120.09" style="fill:none;stroke:#000000;stroke-width:0.5" />
<path d="M39.885,133.47L43.885,133.47" style="fill:none;stroke:#000000;stroke-width:0.5" />
<path d="M39.885,146.84L43.885,146.84" style="fill:none;stroke:#000000;stroke-width:0.5" />
<path d="M39.885,173.58L43.885,173.58" style="fill:none;stroke:#000000;stroke-width:0.5" />
<path d="M39.885,186.96L43.885,186.96" style="fill:none;stroke:#000000;stroke-width:0.5" />
<path d="M39.885,200.33L43.885,200.33" style="fill:none;stroke:#000000;stroke-width:0.5" />
<path d="M39.885,227.08L43.885,227.08" style="fill:none;stroke:#000000;stroke-width:0.5" />
<path d="M39.885,240.45L43.885,240.45" style="fill:none;stroke:#000000;stroke-width:0.5" />
<path d="M43.885,42.709L43.885,244.01" style="fill:none;stroke:#000000;stroke-width:0.5" />
<path d="M52.135,100.1L53.42,62.26L60.268,42.709L75.769,145.72L79.728,66.568L101.08,153.69L107.54,125.15L113.54,150.68L113.95,152.58L132.86,105.68L142.94,131.95L148.63,94.905L165.02,129.94L171.76,171.4L182.11,99.767L189.58,110.31L206.88,141.88L215.6,191.41L224.1,182.12L224.53,179.13L227.25,212.48L241.51,233.19L243.48,244.01L265.75,196.16L285.5,149.94" style="fill:none;stroke:#F15A60" />
<path d="M54.635,100.1A2.5,2.5 0 1 1 49.635,100.1A2.5,2.5 0 1 1 54.635,100.1Z" style="fill:none;stroke:#F15A60;stroke-width:0.5" />
<path d="M55.92,62.26A2.5,2.5 0 1 1 50.92,62.26A2.5,2.5 0 1 1 55.92,62.26Z" style="fill:none;stroke:#F15A60;stroke-width:0.5" />
<path d="M62.768,42.709A2.5,2.5 0 1 1 57.768,42.709A2.5,2.5 0 1 1 62.768,42.709Z" style="fill:none;stroke:#F15A60;stroke-width:0.5" />
<path d="M78.269,145.72A2.5,2.5 0 1 1 73.269,145.72A2.5,2.5 0 1 1 78.269,145.72Z" style="fill:none;stroke:#F15A60;stroke-width:0.5" />
<path d="M82.228,66.568A2.5,2.5 0 1 1 77.228,66.568A2.5,2.5 0 1 1 82.228,66.568Z" style="fill:none;stroke:#F15A60;stroke-width:0.5" />
<path d="M103.58,153.69A2.5,2.5 0 1 1 98.578,153.69A2.5,2.5 0 1 1 103.58,153.69Z" style="fill:none;stroke:#F15A60;stroke-width:0.5" />
<path d="M110.04,125.15A2.5,2.5 0 1 1 105.04,125.15A2.5,2.5 0 1 1 110.04,125.15Z" style="fill:none;stroke:#F15A60;stroke-width:0.5" />
<path d="M116.04,150.68A2.5,2.5 0 1 1 111.04,150.68A2.5,2.5 0 1 1 116.04,150.68Z" style="fill:none;stroke:#F15A60;stroke-width:0.5" />
<path d="M116.45,152.58A2.5,2.5 0 1 1 111.45,152.58A2.5,2.5 0 1 1 116.45,152.58Z" style="fill:none;stroke:#F15A60;stroke-width:0.5" />
<path d="M135.36,105.68A2.5,2.5 0 1 1 130.36,105.68A2.5,2.5 0 1 1 135.36,105.68Z" style="fill:none;stroke:#F15A60;stroke-width:0.5" />
<path d="M145.44,131.95A2.5,2.5 0 1 1 140.44,131.95A2.5,2.5 0 1 1 145.44,131.95Z" style="fill:none;stroke:#F15A60;stroke-width:0.5" />
<path d="M151.13,94.905A2.5,2.5 0 1 1 146.13,94.905A2.5,2.5 0 1 1 151.13,94.905Z" style="fill:none;stroke:#F15A60;stroke-width:0.5" />
<path d="M167.52,129.94A2.5,2.5 0 1 1 162.52,129.94A2.5,2.5 0 1 1 167.52,129.94Z" style="fill:none;stroke:#F15A60;stroke-width:0.5" />
<path d="M174.26,171.4A2.5,2.5 0 1 1 169.26,171.4A2.5,2.5 0 1 1 174.26,171.4Z" style="fill:none;stroke:#F15A60;stroke-width:0.5" />
<path d="M184.61,99.767A2.5,2.5 0 1 1 179.61,99.767A2.5,2.5 0 1 1 184.61,99.767Z" style="fill:none;stroke:#F15A60;stroke-width:0.5" />
<path d="M192.08,110.31A2.5,2.5 0 1 1 187.08,110.31A2.5,2.5 0 1 1 192.08,110.31Z" style="fill:none;stroke:#F15A60;stroke-width:0.5" />
<path d="M209.38,141.88A2.5,2.5 0 1 1 204.38,141.88A2.5,2.5 0 1 1 209.38,141.88Z" style="fill:none;stroke:#F15A60;stroke-width:0.5" />
<path d="M218.1,191.41A2.5,2.5 0 1 1 213.1,191.41A2.5,2.5 0 1 1 218.1,191.41Z" style="fill:none;stroke:#F15A60;stroke-width:0.5" />
<path d="M226.6,182.12A2.5,2.5 0 1 1 221.6,182.12A2.5,2.5 0 1 1 226.6,182.12Z" style="fill:none;stroke:#F15A60;stroke-width:0.5" />
<path d="M227.03,179.13A2.5,2.5 0 1 1 222.03,179.13A2.5,2.5 0 1 1 227.03,179.13Z" style="fill:none;stroke:#F15A60;stroke-width:0.5" />
<path d="M229.75,212.48A2.5,2.5 0 1 1 224.75,212.48A2.5,2.5 0 1 1 229.75,212.48Z" style="fill:none;stroke:#F15A60;stroke-width:0.5" />
<path d="M244.01,233.19A2.5,2.5 0 1 1 239.01,233.19A2.5,2.5 0 1 1 244.01,233.19Z" style="fill:none;stroke:#F15A60;stroke-width:0.5" />
<path d="M245.98,244.01A2.5,2.5 0 1 1 240.98,244.01A2.5,2.5 0 1 1 245.98,244.01Z" style="fill:none;stroke:#F15A60;stroke-width:0.5" />
<path d="M268.25,196.16A2.5,2.5 0 1 1 263.25,196.16A2.5,2.5 0 1 1 268.25,196.16Z" style="fill:none;stroke:#F15A60;stroke-width:0.5" />
<path d="M288,149.94A2.5,2.5 0 1 1 283,149.94A2.5,2.5 0 1 1 288,149.94Z" style="fill:none;stroke:#F15A60;stroke-width:0.5" />
<path d="M52.135,100.1L53.42,62.26L60.268,42.709L75.769,145.72L79.728,66.568L101.08,153.69L142.94,131.95L148.63,94.905L171.76,171.4L182.11,99.767L241.51,233.19L243.48,244.01L285.5,149.94" style="fill:none;stroke:#7AC36A;stroke-dasharray:6,2" />
<path d="M50.001,97.963L54.269,97.963L54.269,102.23L50.001,102.23Z" style="fill:none;stroke:#7AC36A;stroke-width:0.5" />
<path d="M51.286,60.126L55.554,60.126L55.554,64.394L51.286,64.394Z" style="fill:none;stroke:#7AC36A;stroke-width:0.5" />
<path d="M58.134,40.575L62.402,40.575L62.402,44.843L58.134,44.843Z" style="fill:none;stroke:#7AC36A;stroke-width:0.5" />
<path d="M73.635,143.58L77.903,143.58L77.903,147.85L73.635,147.85Z" style="fill:none;stroke:#7AC36A;stroke-width:0.5" />
<path d="M77.594,64.434L81.861,64.434L81.861,68.702L77.594,68.702Z" style="fill:none;stroke:#7AC36A;stroke-width:0.5" />
<path d="M98.944,151.55L103.21,151.55L103.21,155.82L98.944,155.82Z" style="fill:none;stroke:#7AC36A;stroke-width:0.5" />
<path d="M140.81,129.81L145.07,129.81L145.07,134.08L140.81,134.08Z" style="fill:none;stroke:#7AC36A;stroke-width:0.5" />
<path d="M146.49,92.771L150.76,92.771L150.76,97.039L146.49,97.039Z" style="fill:none;stroke:#7AC36A;stroke-width:0.5" />
<path d="M169.62,169.26L173.89,169.26L173.89,173.53L169.62,173.53Z" style="fill:none;stroke:#7AC36A;stroke-width:0.5" />
<path d="M179.97,97.633L184.24,97.633L184.24,101.9L179.97,101.9Z" style="fill:none;stroke:#7AC36A;stroke-width:0.5" />
<path d="M239.37,231.06L243.64,231.06L243.64,235.33L239.37,235.33Z" style="fill:none;stroke:#7AC36A;stroke-width:0.5" />
<path d="M241.35,241.88L245.62,241.88L245.62,246.15L241.35,246.15Z" style="fill:none;stroke:#7AC36A;stroke-width:0.5" />
<path d="M283.37,147.81L287.63,147.81L287.63,152.08L283.37,152.08Z" style="fill:none;stroke:#7AC36A;stroke-width:0.5" />
<path d="M268,55.484L288,55.484" style="fill:none;stroke:#F15A60" />
<path d="M280.5,55.484A2.5,2.5 0 1 1 275.5,55.484A2.5,2.5 0 1 1 280.5,55.484Z" style="fill:none;stroke:#F15A60;stroke-width:0.5" />
<text x="225.01" y="-52.997" transform="scale(1, -1)"
	style="font-family:Liberation Serif;font-variant:normal;font-weight:normal;font-style:normal;font-size:12px">Original</text>
<path d="M268,45.301L288,45.301" style="fill:none;stroke:#7AC36A;stroke-dasharray:6,2" />
<path d="M275.87,43.167L280.13,43.167L280.13,47.435L275.87,47.435Z" style="fill:none;stroke:#7AC36A;stroke-width:0.5" />
<text x="214.33" y="-42.813" transform="scale(1, -1)"
	style="font-family:Liberation Serif;font-variant:normal;font-weight:normal;font-style:normal;font-size:12px">Simplified</text>
</g>
</svg>
